<?xml version="1.0" encoding="UTF-8" standalone="no"?>
<!-- Created with Inkscape (http://www.inkscape.org/) -->

<svg
   xmlns:dc="http://purl.org/dc/elements/1.1/"
   xmlns:cc="http://creativecommons.org/ns#"
   xmlns:rdf="http://www.w3.org/1999/02/22-rdf-syntax-ns#"
   xmlns:svg="http://www.w3.org/2000/svg"
   xmlns="http://www.w3.org/2000/svg"
   xmlns:xlink="http://www.w3.org/1999/xlink"
   xmlns:sodipodi="http://sodipodi.sourceforge.net/DTD/sodipodi-0.dtd"
   xmlns:inkscape="http://www.inkscape.org/namespaces/inkscape"
   width="48px"
   height="48px"
   id="svg7220"
   sodipodi:version="0.32"
   inkscape:version="0.47 r22583"
   sodipodi:docname="emblem-rabbitvcs-unversioned.svg"
   inkscape:output_extension="org.inkscape.output.svg.inkscape"
   version="1.1">
  <defs
     id="defs7222">
    <inkscape:perspective
       sodipodi:type="inkscape:persp3d"
       inkscape:vp_x="0 : 24 : 1"
       inkscape:vp_y="0 : 1000 : 0"
       inkscape:vp_z="48 : 24 : 1"
       inkscape:persp3d-origin="24 : 16 : 1"
       id="perspective2928" />
    <linearGradient
       inkscape:collect="always"
       id="linearGradient4873">
      <stop
         style="stop-color:#ffffff;stop-opacity:1;"
         offset="0"
         id="stop4875" />
      <stop
         style="stop-color:#ffffff;stop-opacity:0;"
         offset="1"
         id="stop4877" />
    </linearGradient>
    <linearGradient
       inkscape:collect="always"
       xlink:href="#linearGradient4873"
       id="linearGradient2704"
       gradientUnits="userSpaceOnUse"
       gradientTransform="matrix(1.6355278,0,0,1.6963496,-84.230819,35.870385)"
       x1="62.745731"
       y1="-13.444987"
       x2="62.608765"
       y2="7.1072145" />
    <linearGradient
       id="linearGradient3811">
      <stop
         id="stop3813"
         offset="0"
         style="stop-color:#204a87;stop-opacity:1" />
      <stop
         id="stop3815"
         offset="1"
         style="stop-color:#3465a4;stop-opacity:1" />
    </linearGradient>
    <linearGradient
       inkscape:collect="always"
       xlink:href="#linearGradient3811"
       id="linearGradient3927"
       x1="15.046636"
       y1="44.787998"
       x2="15.046636"
       y2="3.8851264"
       gradientUnits="userSpaceOnUse"
       gradientTransform="matrix(0.75393662,0,0,0.78195615,-0.29837673,10.844822)" />
    <linearGradient
       id="linearGradient5106">
      <stop
         style="stop-color:#8fb3d9;stop-opacity:1"
         offset="0"
         id="stop5108" />
      <stop
         id="stop8208"
         offset="0.25288007"
         style="stop-color:#729fcf;stop-opacity:1" />
      <stop
         style="stop-color:#3465a4;stop-opacity:1"
         offset="0.68271071"
         id="stop8210" />
      <stop
         style="stop-color:#204a87;stop-opacity:1"
         offset="1"
         id="stop5110" />
    </linearGradient>
    <radialGradient
       inkscape:collect="always"
       xlink:href="#linearGradient5106"
       id="radialGradient2707"
       gradientUnits="userSpaceOnUse"
       gradientTransform="matrix(-5.2790178,-4.5011813e-7,2.7661998e-7,-3.4904287,345.86693,-5.9480907)"
       cx="62.202274"
       cy="-5.7132163"
       fx="62.202274"
       fy="-5.7132163"
       r="9.7552835" />
    <linearGradient
       id="linearGradient10691"
       inkscape:collect="always">
      <stop
         id="stop10693"
         offset="0"
         style="stop-color:#000000;stop-opacity:1;" />
      <stop
         id="stop10695"
         offset="1"
         style="stop-color:#000000;stop-opacity:0;" />
    </linearGradient>
    <radialGradient
       inkscape:collect="always"
       xlink:href="#linearGradient10691"
       id="radialGradient3080"
       gradientUnits="userSpaceOnUse"
       gradientTransform="scale(1.902215,0.525703)"
       cx="6.702713"
       cy="73.615715"
       fx="6.702713"
       fy="73.615715"
       r="7.228416" />
  </defs>
  <sodipodi:namedview
     id="base"
     pagecolor="#ffffff"
     bordercolor="#666666"
     borderopacity="1.0"
     inkscape:pageopacity="0.0"
     inkscape:pageshadow="2"
     inkscape:zoom="7"
     inkscape:cx="24"
     inkscape:cy="24"
     inkscape:current-layer="layer1"
     showgrid="true"
     inkscape:grid-bbox="true"
     inkscape:document-units="px"
     inkscape:window-width="1672"
     inkscape:window-height="975"
     inkscape:window-x="0"
     inkscape:window-y="25"
     inkscape:window-maximized="0" />
  <metadata
     id="metadata7225">
    <rdf:RDF>
      <cc:Work
         rdf:about="">
        <dc:format>image/svg+xml</dc:format>
        <dc:type
           rdf:resource="http://purl.org/dc/dcmitype/StillImage" />
      </cc:Work>
    </rdf:RDF>
  </metadata>
  <g
     id="layer1"
     inkscape:label="Layer 1"
     inkscape:groupmode="layer">
    <path
       transform="matrix(1.1163982,0,0,1.3331255,3.2659235,-8.6506354)"
       d="m 26.5,38.700001 a 13.75,3.8 0 1 1 -27.5,0 13.75,3.8 0 1 1 27.5,0 z"
       sodipodi:ry="3.8"
       sodipodi:rx="13.75"
       sodipodi:cy="38.700001"
       sodipodi:cx="12.75"
       id="path2625"
       style="opacity:0.5;fill:url(#radialGradient3080);fill-opacity:1;fill-rule:nonzero;stroke:none;stroke-width:0.80000001;marker:none;visibility:visible;display:inline;overflow:visible"
       sodipodi:type="arc" />
    <path
       style="fill:url(#radialGradient2707);fill-opacity:1;fill-rule:nonzero;stroke:url(#linearGradient3927);stroke-width:0.71063322;stroke-miterlimit:4;stroke-dasharray:none"
       d="m 32.501585,29.914228 c 0,8.593529 -6.716934,15.560015 -15.001395,15.560015 -8.285223,0 -15.0017755,-6.966563 -15.0017755,-15.560015 0,-8.593136 6.7165525,-15.558913 15.0017755,-15.558913 8.284461,0 15.001395,6.965777 15.001395,15.558913 l 0,0 z"
       id="path6495" />
    <path
       id="path8655"
       d="m 31.803182,29.914253 c 0,8.19383 -6.404369,14.836289 -14.303328,14.836289 -7.8996799,0 -14.3036874,-6.642535 -14.3036874,-14.836289 0,-8.193452 6.4040075,-14.835237 14.3036874,-14.835237 7.898959,0 14.303328,6.641785 14.303328,14.835237 l 0,0 z"
       style="opacity:0.6;fill:none;stroke:url(#linearGradient2704);stroke-width:0.71063977;stroke-miterlimit:4;stroke-opacity:1;stroke-dasharray:none" />
    <path
       id="path9053"
       style="font-size:72px;font-style:normal;font-weight:bold;fill:#ffffff;fill-opacity:1;stroke:none;font-family:Standard Symbols L"
       d="m 18.546308,34.256961 c 5.16e-4,-1.447395 -0.348874,-3.601913 1.395499,-5.065878 1.735645,-1.440356 3.151622,-2.882372 3.139869,-5.065876 0.02566,-2.162181 -2.093246,-3.601599 -4.186492,-3.799408 -2.784559,-0.193681 -5.581992,0.203674 -6.977488,3.075711 -0.203775,1.238383 -0.07068,2.894786 1.395496,2.894786 0.686623,0 1.395497,-0.696137 1.395497,-1.447392 l 0,-0.723697 c 0,-0.361849 0.02046,-0.693557 0.69775,-1.085546 0.711364,-0.411713 0.982572,-0.3488 1.046624,-0.361847 1.744371,-0.356998 2.964518,-0.0074 3.488744,0.723696 1.047658,1.461122 0.336424,2.180595 -1.046623,3.980332 -1.374468,1.788567 -2.442121,3.256635 -2.442121,5.427724 l 0,1.447395 2.093245,0 z"
       sodipodi:nodetypes="cccccsssssssscc" />
    <path
       sodipodi:type="arc"
       style="fill:#ffffff;fill-opacity:1;stroke:none"
       id="path8287"
       sodipodi:cx="18.4417"
       sodipodi:cy="34.547359"
       sodipodi:rx="2.2272584"
       sodipodi:ry="2.4054391"
       d="m 20.668958,34.547359 a 2.2272584,2.4054391 0 1 1 -4.454516,0 2.2272584,2.4054391 0 1 1 4.454516,0 z"
       transform="matrix(0.62655397,0,0,0.60171685,5.9449646,17.087713)" />
  </g>
</svg>
