<?xml version="1.0" encoding="UTF-8" standalone="no"?>
<!-- Created with Inkscape (http://www.inkscape.org/) -->
<svg
   xmlns:dc="http://purl.org/dc/elements/1.1/"
   xmlns:cc="http://creativecommons.org/ns#"
   xmlns:rdf="http://www.w3.org/1999/02/22-rdf-syntax-ns#"
   xmlns:svg="http://www.w3.org/2000/svg"
   xmlns="http://www.w3.org/2000/svg"
   xmlns:sodipodi="http://sodipodi.sourceforge.net/DTD/sodipodi-0.dtd"
   xmlns:inkscape="http://www.inkscape.org/namespaces/inkscape"
   width="48"
   height="48"
   id="svg2432"
   sodipodi:version="0.32"
   inkscape:version="0.46"
   sodipodi:docname="nautilussvn-applypatch.svg"
   inkscape:output_extension="org.inkscape.output.svg.inkscape"
   version="1.0">
  <defs
     id="defs2434">
    <inkscape:perspective
       sodipodi:type="inkscape:persp3d"
       inkscape:vp_x="0 : 526.18109 : 1"
       inkscape:vp_y="0 : 1000 : 0"
       inkscape:vp_z="744.09448 : 526.18109 : 1"
       inkscape:persp3d-origin="372.04724 : 350.78739 : 1"
       id="perspective2440" />
  </defs>
  <sodipodi:namedview
     id="base"
     pagecolor="#ffffff"
     bordercolor="#666666"
     borderopacity="0"
     gridtolerance="10000"
     guidetolerance="10"
     objecttolerance="10"
     inkscape:pageopacity="0.0"
     inkscape:pageshadow="2"
     inkscape:zoom="24.779229"
     inkscape:cx="25.67006"
     inkscape:cy="25.031586"
     inkscape:document-units="px"
     inkscape:current-layer="layer1"
     showgrid="false"
     inkscape:window-width="1440"
     inkscape:window-height="825"
     inkscape:window-x="0"
     inkscape:window-y="25"
     inkscape:showpageshadow="false" />
  <metadata
     id="metadata2437">
    <rdf:RDF>
      <cc:Work
         rdf:about="">
        <dc:format>image/svg+xml</dc:format>
        <dc:type
           rdf:resource="http://purl.org/dc/dcmitype/StillImage" />
      </cc:Work>
    </rdf:RDF>
  </metadata>
  <g
     inkscape:label="Layer 1"
     inkscape:groupmode="layer"
     id="layer1">
    <g
       id="g4274"
       transform="matrix(0.2512227,0,0,0.2520883,-26.158007,-51.753588)">
      <path
         sodipodi:nodetypes="csccscc"
         id="rect3026"
         d="M 147.7595,285.77678 C 137.92063,276.1507 143.00042,262.66927 148.81731,257.0643 C 154.83235,251.2684 169.3426,247.86225 177.13694,256.39934 L 244.89185,324.15424 C 254.42797,333.74399 247.81445,346.74771 243.30017,351.27791 C 237.40311,357.19577 224.77226,361.78398 215.51441,353.53169 L 147.7595,285.77678 z"
         style="fill:#ff6600;fill-opacity:1;fill-rule:evenodd;stroke:#000000;stroke-width:4.00000143;stroke-linecap:round;stroke-linejoin:round;marker:none;stroke-miterlimit:4;stroke-dashoffset:0;stroke-opacity:1;visibility:visible;display:inline;overflow:visible" />
      <path
         sodipodi:nodetypes="csccscc"
         id="path2445"
         d="M 147.50676,323.4823 C 137.66789,333.10838 142.74768,346.58981 148.56457,352.19478 C 154.57961,357.99068 169.08986,361.39683 176.8842,352.85974 L 244.63911,285.10484 C 254.17523,275.51509 247.56171,262.51137 243.04743,257.98117 C 237.15037,252.06331 224.51952,247.4751 215.26167,255.72739 L 147.50676,323.4823 z"
         style="fill:#ff6600;fill-opacity:1;fill-rule:evenodd;stroke:#000000;stroke-width:4.00000143;stroke-linecap:round;stroke-linejoin:round;marker:none;stroke-miterlimit:4;stroke-dashoffset:0;stroke-opacity:1;visibility:visible;display:inline;overflow:visible" />
      <path
         id="path2447"
         d="M 157.04051,292.08671 C 151.38713,286.40321 147.38895,282.20247 146.86269,281.39326 C 144.85047,278.29915 143.98307,274.40307 144.47831,270.68337 C 144.99402,266.81001 146.74227,262.725 149.13271,259.80778 C 151.43464,256.99858 155.80692,254.66238 160.42706,253.77296 C 162.89327,253.29819 166.6577,253.35676 168.79014,253.90307 C 172.58369,254.87494 172.77442,255.02751 183.35616,265.55466 L 192.94487,275.09391 L 179.76954,288.27066 C 172.52311,295.51787 166.53962,301.4474 166.4729,301.4474 C 166.40618,301.4474 162.1616,297.23509 157.04051,292.08671 z"
         style="fill:#a0a0a0;stroke:none;stroke-width:1px;stroke-linecap:butt;stroke-linejoin:miter;stroke-opacity:1" />
      <path
         id="path2449"
         d="M 157.37637,292.19881 C 152.45011,287.23541 148.04959,282.7169 147.59746,282.15768 C 144.3207,278.10488 143.62023,272.08489 145.74123,266.20498 C 148.129,259.58554 152.42265,255.80587 159.48836,254.10349 C 163.24176,253.19917 168.72566,253.56229 171.3427,254.88845 C 173.256,255.85799 174.65815,257.13305 183.80832,266.22415 L 192.72815,275.08641 L 179.66119,288.1548 C 172.47436,295.34242 166.5355,301.22319 166.46373,301.22319 C 166.39195,301.22319 162.30265,297.16222 157.37638,292.19881 L 157.37637,292.19881 z"
         style="fill:#008000" />
      <path
         id="path2451"
         d="M 161.23079,355.69725 C 158.01506,355.19095 154.12767,353.72333 151.84814,352.15498 C 148.75107,350.02414 145.90951,345.68952 144.69567,341.24435 C 144.30617,339.81799 144.20513,338.83086 144.20226,336.42388 C 144.19901,333.69807 144.26011,333.21869 144.81667,331.6034 C 146.18097,327.64379 144.48271,329.45943 181.59236,292.28583 C 200.34847,273.4974 216.4195,257.54128 217.30576,256.82778 C 220.28191,254.43181 223.20411,253.43218 227.18422,253.44855 C 231.1091,253.46469 235.28623,254.82035 238.81531,257.22333 C 242.5733,259.78218 245.47699,264.16628 246.91726,269.45598 C 247.49665,271.58393 247.44393,275.56539 246.80983,277.56923 C 245.69014,281.10757 247.43987,279.25053 208.97834,317.72073 C 170.09947,356.60836 172.66816,354.20021 168.94538,355.25169 C 167.00759,355.79901 163.25404,356.01579 161.23079,355.69725 L 161.23079,355.69725 z"
         style="fill:#008000" />
      <path
         id="path2453"
         d="M 224.73689,355.71597 C 222.83511,355.36709 221.32112,354.82559 219.61802,353.88514 C 218.13912,353.0685 216.78084,351.80496 208.34778,343.40104 L 198.75909,333.84548 L 211.99711,320.6172 L 225.2351,307.38892 L 235.0402,317.25408 C 245.4866,327.76448 246.01474,328.39335 246.99692,331.4913 C 248.33446,335.71011 247.44952,341.17797 244.67458,345.84062 C 243.23751,348.25527 242.08639,349.64025 240.24709,351.16754 C 238.47449,352.63945 234.51704,354.61682 232.06158,355.25752 C 230.06223,355.7792 226.34853,356.01164 224.73689,355.71598 L 224.73689,355.71597 z"
         style="fill:#008000" />
      <rect
         rx="0"
         ry="5.0000014"
         y="300.59219"
         x="176.00342"
         height="26.90498"
         width="23.093441"
         id="rect2455"
         style="fill:#008000" />
      <path
         id="path3279"
         d="M 175.47813,306.70473 C 174.44105,304.45844 174.3239,302.32925 175.13109,300.39725 C 175.59377,299.28984 176.19191,298.6414 183.39621,291.4371 L 191.16257,283.67074 L 192.44418,283.29209 C 194.20713,282.77124 195.96715,282.84992 197.71208,283.52762 L 199.18545,284.09984 L 207.63743,292.55183 L 216.08941,301.00381 L 216.67093,302.50051 C 217.4291,304.45179 217.44812,306.5832 216.72243,308.26973 C 216.16387,309.56789 215.88611,309.86761 208.39262,317.25862 L 200.64064,324.90457 L 199.25983,325.2922 C 198.5004,325.5054 197.1838,325.61392 196.33408,325.53336 C 193.58122,325.27236 193.59473,325.28314 184.18653,315.8454 C 178.24226,309.88245 175.72572,307.24099 175.47813,306.70473 z"
         style="fill:#00aa00;fill-opacity:1" />
      <path
         id="path3291"
         d="M 157.24015,291.89613 C 152.18102,286.77858 147.63437,282.00089 147.13648,281.27904 C 144.33213,277.21323 143.92073,271.10954 146.08398,265.66378 C 148.382,259.87873 152.25047,256.3563 158.29236,254.54743 C 160.91528,253.76216 165.8633,253.54224 168.47084,254.09504 C 172.0602,254.85599 172.91441,255.54608 184.50702,267.05031 L 192.57852,275.06027 L 179.50854,288.13052 L 166.43856,301.20077 L 157.24015,291.89613 z"
         style="fill:#ff0000;fill-opacity:1" />
      <path
         id="path3293"
         d="M 160.60077,355.46123 C 158.38812,355.04069 154.98768,353.82025 153.06619,352.75701 C 149.01562,350.51568 145.20698,344.62042 144.47413,339.45771 C 143.86393,335.15905 144.56013,331.19896 146.39421,328.53596 C 148.00561,326.19628 155.74629,318.28183 186.06709,287.97249 C 218.29883,255.75294 218.44259,255.61706 221.51796,254.46642 C 227.32621,252.29327 235.74081,254.25394 240.76117,258.95023 C 243.13573,261.17152 244.89823,263.98944 246.29243,267.79375 C 247.00249,269.73132 247.03252,269.94547 247.04653,273.17475 C 247.06881,278.32244 246.74472,279.06988 242.41432,283.8571 C 239.05142,287.57472 178.77329,347.84612 175.13475,351.12914 C 173.55612,352.55352 171.77996,353.98265 171.18773,354.30499 C 168.98264,355.50515 163.80632,356.07048 160.60077,355.46123 L 160.60077,355.46123 z M 199.86838,325.09473 C 200.46979,324.91776 202.51811,322.99205 208.52588,316.95548 C 215.51734,309.93054 216.43655,308.92475 216.76246,307.94313 C 217.26762,306.42158 217.22639,304.38628 216.65513,302.64561 C 216.1858,301.21554 216.09356,301.11309 207.63183,292.62479 C 199.15678,284.12313 199.07006,284.04459 197.62428,283.5608 C 195.9345,282.99536 194.02113,282.93316 192.27153,283.38679 C 191.10403,283.68949 190.83785,283.9324 183.44872,291.43816 C 179.25827,295.69475 175.61318,299.58222 175.34852,300.07699 C 174.95345,300.81553 174.8672,301.35786 174.86669,303.10654 C 174.86576,306.32199 174.88365,306.34787 182.35447,313.93169 C 190.36135,322.05967 193.30626,324.74806 194.69241,325.1949 C 195.80828,325.55461 198.48131,325.50288 199.86838,325.09473 L 199.86838,325.09473 z"
         style="fill:#ff0000;fill-opacity:1" />
      <path
         id="path3295"
         d="M 224.52818,355.58183 C 223.05746,355.3029 221.46059,354.72572 219.93868,353.92303 C 218.554,353.1927 211.79062,346.82637 202.89337,337.87842 L 198.85892,333.82097 L 212.02893,320.65095 L 225.19894,307.48094 L 229.70508,311.96394 C 236.34209,318.56687 244.19989,326.79172 245.30398,328.29155 C 246.76163,330.2716 247.39741,332.52299 247.39741,335.70454 C 247.39741,338.53834 246.98566,340.53632 245.8291,343.3145 C 244.91633,345.50708 242.80902,348.68591 241.38574,350.01722 C 239.08611,352.16826 235.12809,354.31815 231.95647,355.13896 C 230.07621,355.62557 226.03058,355.86676 224.52818,355.58183 L 224.52818,355.58183 z"
         style="fill:#ff0000;fill-opacity:1" />
      <path
         id="path3297"
         d="M 194.51973,324.96023 C 193.20115,324.38763 190.49566,321.91405 183.81874,315.17651 C 176.93597,308.23125 175.86811,307.04451 175.31924,305.7309 C 174.92266,304.78177 174.85649,301.66213 175.21303,300.72435 C 175.55555,299.82346 177.70682,297.47674 184.50702,290.58599 C 187.83651,287.21216 191.00599,284.19047 191.55031,283.87113 C 192.40004,283.3726 192.81218,283.28864 194.46502,283.27731 C 198.12478,283.25223 197.6812,282.93199 207.29727,292.54145 C 213.02771,298.26795 215.90244,301.30055 216.2497,301.9855 C 216.62901,302.73368 216.78699,303.5033 216.86091,304.96332 C 217.02954,308.29307 217.2959,307.92089 208.29789,316.92886 C 201.67307,323.56102 200.2837,324.84856 199.52897,325.05516 C 198.25861,325.4029 195.41504,325.34901 194.51973,324.96022 L 194.51973,324.96023 z"
         style="fill:#ff5555;fill-opacity:1" />
    </g>
  </g>
</svg>
