<?xml version="1.0" encoding="UTF-8" standalone="no"?>
<!-- Created with Inkscape (http://www.inkscape.org/) -->
<svg
   xmlns:dc="http://purl.org/dc/elements/1.1/"
   xmlns:cc="http://creativecommons.org/ns#"
   xmlns:rdf="http://www.w3.org/1999/02/22-rdf-syntax-ns#"
   xmlns:svg="http://www.w3.org/2000/svg"
   xmlns="http://www.w3.org/2000/svg"
   xmlns:sodipodi="http://sodipodi.sourceforge.net/DTD/sodipodi-0.dtd"
   xmlns:inkscape="http://www.inkscape.org/namespaces/inkscape"
   width="48"
   height="48"
   id="svg2432"
   sodipodi:version="0.32"
   inkscape:version="0.46"
   sodipodi:docname="nautilussvn-createpatch.svg"
   inkscape:output_extension="org.inkscape.output.svg.inkscape"
   version="1.0">
  <defs
     id="defs2434">
    <inkscape:perspective
       sodipodi:type="inkscape:persp3d"
       inkscape:vp_x="0 : 526.18109 : 1"
       inkscape:vp_y="0 : 1000 : 0"
       inkscape:vp_z="744.09448 : 526.18109 : 1"
       inkscape:persp3d-origin="372.04724 : 350.78739 : 1"
       id="perspective2440" />
  </defs>
  <sodipodi:namedview
     id="base"
     pagecolor="#ffffff"
     bordercolor="#666666"
     borderopacity="0"
     gridtolerance="10000"
     guidetolerance="10"
     objecttolerance="10"
     inkscape:pageopacity="0.0"
     inkscape:pageshadow="2"
     inkscape:zoom="12.416667"
     inkscape:cx="24"
     inkscape:cy="24"
     inkscape:document-units="px"
     inkscape:current-layer="layer1"
     showgrid="false"
     inkscape:window-width="1440"
     inkscape:window-height="825"
     inkscape:window-x="0"
     inkscape:window-y="25"
     inkscape:showpageshadow="false" />
  <metadata
     id="metadata2437">
    <rdf:RDF>
      <cc:Work
         rdf:about="">
        <dc:format>image/svg+xml</dc:format>
        <dc:type
           rdf:resource="http://purl.org/dc/dcmitype/StillImage" />
      </cc:Work>
    </rdf:RDF>
  </metadata>
  <g
     inkscape:label="Layer 1"
     inkscape:groupmode="layer"
     id="layer1">
    <g
       id="g3491"
       transform="matrix(0.2503407,0,0,0.2590395,-26.02681,-54.248187)">
      <path
         sodipodi:nodetypes="csccscc"
         id="rect3026"
         d="M 147.7595,285.77678 C 137.92063,276.1507 143.00042,262.66927 148.81731,257.0643 C 154.83235,251.2684 169.3426,247.86225 177.13694,256.39934 L 244.89185,324.15424 C 254.42797,333.74399 247.81445,346.74771 243.30017,351.27791 C 237.40311,357.19577 224.77226,361.78398 215.51441,353.53169 L 147.7595,285.77678 z"
         style="fill:#ff6600;fill-opacity:1;fill-rule:evenodd;stroke:#000000;stroke-width:4.00000143;stroke-linecap:round;stroke-linejoin:round;marker:none;stroke-miterlimit:4;stroke-dashoffset:0;stroke-opacity:1;visibility:visible;display:inline;overflow:visible" />
      <path
         sodipodi:nodetypes="csccscc"
         id="path2445"
         d="M 147.50676,323.4823 C 137.66789,333.10838 142.74768,346.58981 148.56457,352.19478 C 154.57961,357.99068 169.08986,361.39683 176.8842,352.85974 L 244.63911,285.10484 C 254.17523,275.51509 247.56171,262.51137 243.04743,257.98117 C 237.15037,252.06331 224.51952,247.4751 215.26167,255.72739 L 147.50676,323.4823 z"
         style="fill:#ff6600;fill-opacity:1;fill-rule:evenodd;stroke:#000000;stroke-width:4.00000143;stroke-linecap:round;stroke-linejoin:round;marker:none;stroke-miterlimit:4;stroke-dashoffset:0;stroke-opacity:1;visibility:visible;display:inline;overflow:visible" />
      <path
         id="path2447"
         d="M 157.04051,292.08671 C 151.38713,286.40321 147.38895,282.20247 146.86269,281.39326 C 144.85047,278.29915 143.98307,274.40307 144.47831,270.68337 C 144.99402,266.81001 146.74227,262.725 149.13271,259.80778 C 151.43464,256.99858 155.80692,254.66238 160.42706,253.77296 C 162.89327,253.29819 166.6577,253.35676 168.79014,253.90307 C 172.58369,254.87494 172.77442,255.02751 183.35616,265.55466 L 192.94487,275.09391 L 179.76954,288.27066 C 172.52311,295.51787 166.53962,301.4474 166.4729,301.4474 C 166.40618,301.4474 162.1616,297.23509 157.04051,292.08671 z"
         style="fill:#a0a0a0;stroke:none;stroke-width:1px;stroke-linecap:butt;stroke-linejoin:miter;stroke-opacity:1" />
      <path
         id="path2449"
         d="M 157.37637,292.19881 C 152.45011,287.23541 148.04959,282.7169 147.59746,282.15768 C 144.3207,278.10488 143.62023,272.08489 145.74123,266.20498 C 148.129,259.58554 152.42265,255.80587 159.48836,254.10349 C 163.24176,253.19917 168.72566,253.56229 171.3427,254.88845 C 173.256,255.85799 174.65815,257.13305 183.80832,266.22415 L 192.72815,275.08641 L 179.66119,288.1548 C 172.47436,295.34242 166.5355,301.22319 166.46373,301.22319 C 166.39195,301.22319 162.30265,297.16222 157.37638,292.19881 L 157.37637,292.19881 z"
         style="fill:#008000" />
      <path
         id="path2451"
         d="M 161.23079,355.69725 C 158.01506,355.19095 154.12767,353.72333 151.84814,352.15498 C 148.75107,350.02414 145.90951,345.68952 144.69567,341.24435 C 144.30617,339.81799 144.20513,338.83086 144.20226,336.42388 C 144.19901,333.69807 144.26011,333.21869 144.81667,331.6034 C 146.18097,327.64379 144.48271,329.45943 181.59236,292.28583 C 200.34847,273.4974 216.4195,257.54128 217.30576,256.82778 C 220.28191,254.43181 223.20411,253.43218 227.18422,253.44855 C 231.1091,253.46469 235.28623,254.82035 238.81531,257.22333 C 242.5733,259.78218 245.47699,264.16628 246.91726,269.45598 C 247.49665,271.58393 247.44393,275.56539 246.80983,277.56923 C 245.69014,281.10757 247.43987,279.25053 208.97834,317.72073 C 170.09947,356.60836 172.66816,354.20021 168.94538,355.25169 C 167.00759,355.79901 163.25404,356.01579 161.23079,355.69725 L 161.23079,355.69725 z"
         style="fill:#008000" />
      <path
         id="path2453"
         d="M 224.73689,355.71597 C 222.83511,355.36709 221.32112,354.82559 219.61802,353.88514 C 218.13912,353.0685 216.78084,351.80496 208.34778,343.40104 L 198.75909,333.84548 L 211.99711,320.6172 L 225.2351,307.38892 L 235.0402,317.25408 C 245.4866,327.76448 246.01474,328.39335 246.99692,331.4913 C 248.33446,335.71011 247.44952,341.17797 244.67458,345.84062 C 243.23751,348.25527 242.08639,349.64025 240.24709,351.16754 C 238.47449,352.63945 234.51704,354.61682 232.06158,355.25752 C 230.06223,355.7792 226.34853,356.01164 224.73689,355.71598 L 224.73689,355.71597 z"
         style="fill:#008000" />
      <rect
         rx="0"
         ry="5.0000014"
         y="300.59219"
         x="176.00342"
         height="26.90498"
         width="23.093441"
         id="rect2455"
         style="fill:#008000" />
      <path
         id="path3279"
         d="M 175.47813,306.70473 C 174.44105,304.45844 174.3239,302.32925 175.13109,300.39725 C 175.59377,299.28984 176.19191,298.6414 183.39621,291.4371 L 191.16257,283.67074 L 192.44418,283.29209 C 194.20713,282.77124 195.96715,282.84992 197.71208,283.52762 L 199.18545,284.09984 L 207.63743,292.55183 L 216.08941,301.00381 L 216.67093,302.50051 C 217.4291,304.45179 217.44812,306.5832 216.72243,308.26973 C 216.16387,309.56789 215.88611,309.86761 208.39262,317.25862 L 200.64064,324.90457 L 199.25983,325.2922 C 198.5004,325.5054 197.1838,325.61392 196.33408,325.53336 C 193.58122,325.27236 193.59473,325.28314 184.18653,315.8454 C 178.24226,309.88245 175.72572,307.24099 175.47813,306.70473 z"
         style="fill:#00aa00;fill-opacity:1" />
    </g>
  </g>
</svg>
